<?xml version="1.0" encoding="utf-8"?>
<!-- Generator: Adobe Illustrator 25.4.1, SVG Export Plug-In . SVG Version: 6.00 Build 0)  -->
<svg version="1.1" id="Layer_1" xmlns="http://www.w3.org/2000/svg" xmlns:xlink="http://www.w3.org/1999/xlink" x="0px" y="0px"
	 viewBox="0 0 1920 1080" style="enable-background:new 0 0 1920 1080;" xml:space="preserve">
<style type="text/css">
	.st0{fill:#06ABFF;}
	.st1{fill:#FFFFFF;}
</style>
<g>
	<path class="st0" d="M1405.56,719.05c128.05,0,256.1,0,384.15,0c12.87,0,21.73,8.06,21.65,19.62
		c-0.07,10.22-8.25,18.75-18.49,19.26c-1.16,0.06-2.33,0.02-3.5,0.02c-255.77,0-511.54,0-767.3,0c-11.24,0-18.37-4.62-21.25-13.75
		c-3.73-11.81,4.71-24.24,17.09-25.1c1.99-0.14,3.99-0.05,5.99-0.05C1151.12,719.05,1278.34,719.05,1405.56,719.05z"/>
	<g>
		<path class="st1" d="M1117.32,513.61c-3.18,3.09-2.84,6.73-3.82,9.91c-12.21,39.84-24.41,79.68-36.76,119.48
			c-4.66,15-13.4,26-29.76,29.53c-20.06,4.33-38.4-4.66-46.05-23.91c-9.22-23.23-15.96-47.33-23.99-70.98
			c-6.33-18.63-10.83-37.9-18.97-55.88c-8.84-19.52-22.28-34.51-43.77-40.46c-11.4-3.16-23.18-1.38-34.78-1.9
			c-3.25-0.15-2.13,2.22-2.13,3.82c0,29.24,0,58.47,0.05,87.71c0.05,27.72,0.22,55.44,0.22,83.16c0,10.13-4.06,15.23-15,14.7
			c-10.94-0.52-21.94-0.27-32.9,0.1c-7.9,0.27-14.06-3.65-14-13.8c0.3-56.68,0.14-113.36,0.31-170.05c0.01-4.46-0.83-6.03-5.71-5.59
			c-6.77,0.61-13.64,0.25-20.47,0.15c-7.63-0.12-11.72-4.15-11.78-11.61c-0.09-9.64-0.1-19.29-0.02-28.93
			c0.06-7.47,3.94-11.19,11.48-11.22c7.49-0.03,14.99-0.18,22.48,0.05c3.35,0.1,4.11-0.98,3.99-4.2
			c-0.65-17.68,0.18-35.24,6.76-51.97c11.71-29.74,33.79-45.78,65.47-48.94c19.1-1.91,37.84-0.31,56.07,5.96
			c1.1,0.38,2.22,0.7,3.31,1.12c11.38,4.36,12.99,7.45,9.39,19.06c-2.55,8.21-5.26,16.37-8.21,24.44
			c-2.97,8.12-7.17,9.55-14.96,6.08c-11.38-5.07-23.25-7.13-35.38-3.33c-13.04,4.08-18.34,14.54-20.16,27.01
			c-1.05,7.2-1.07,14.54-0.89,21.86c0.06,2.61,0.51,3.11,3.29,3.09c18.1-0.16,36.31-1.45,54.12,3.16
			c34.59,8.95,58.63,30.24,74.02,62.21c10.57,21.95,15.88,45.56,23.15,68.55c2.48,7.84,4.82,15.72,8.28,23.72
			c1.26-4.13,2.52-8.26,3.77-12.39c9.28-30.86,18.34-61.79,27.97-92.54c3.4-10.87,6.14-22.01,10.83-32.45
			c5.76-12.84,15.74-20.32,29.79-21.7c15.74-1.54,28.32,3.89,36.85,17.68c4.79,7.74,6.79,16.49,9.42,25
			c11.75,38.06,23.4,76.15,35.12,114.22c0.28,0.9,0.84,1.71,1.47,2.96c3.08-6.13,4.48-12.44,6.35-18.55
			c13.03-42.55,25.88-85.16,38.86-127.72c3.12-10.24,6.16-12.38,16.93-12.43c11.49-0.05,22.97-0.03,34.46,0.05
			c10.11,0.06,13.3,4.14,10.17,13.86c-8.33,25.82-16.93,51.56-25.44,77.32c-13.96,42.26-27.96,84.51-41.88,126.79
			c-10.45,31.75-46.95,33.45-63.68,18.89c-5.93-5.16-9.96-11.53-12.39-18.89c-14.12-42.76-27.69-85.69-40.22-128.94
			C1118.3,515.92,1117.86,515.02,1117.32,513.61z"/>
		<path class="st1" d="M399.17,554c0.01,17.44-0.49,34.9,0.19,52.32c0.4,10.18-3.43,17.66-10.68,23.96
			c-13.86,12.05-29.18,21.74-46.13,29.01c-29.34,12.58-59.97,16.76-91.59,14.81c-72.22-4.46-132.28-52.43-149.96-120.75
			c-6.87-26.54-9.14-53.47-4.38-80.39c10.02-56.71,39.09-100.01,92.22-125.33c17.57-8.37,36.08-13.34,55.54-14.99
			c26.55-2.24,52.75-1.17,78.25,7.29c19.54,6.48,37.46,16.05,53.59,28.88c2.6,2.06,5.1,4.21,6.98,7.05
			c2.93,4.45,2.96,8.71-0.56,12.74c-8.73,10-17.43,20.04-26.38,29.85c-4.35,4.77-9.92,4.44-16.04-0.45
			c-8.7-6.95-17.67-13.58-27.89-18.09c-25.28-11.16-51.55-13.08-77.93-5.44c-41.01,11.89-64.23,40.48-72.81,81.48
			c-6.1,29.17-3.59,57.81,10.4,84.24c17.17,32.43,44.94,50.83,81.57,54.87c29.23,3.22,56.39-3.3,81.17-19.33
			c2.51-1.62,3.5-3.4,3.47-6.41c-0.14-16.62-0.17-33.25,0.04-49.87c0.05-3.61-1.12-4.47-4.51-4.45
			c-19.82,0.14-39.64-0.33-59.44,0.27c-9.02,0.27-14.62-5.03-14.12-13.97c0.53-9.45,0.1-18.95,0.11-28.42
			c0-9.56,2.78-12.38,12.26-12.39c24.65-0.02,49.3-0.02,73.95-0.03c13.16,0,26.31-0.02,39.47,0.01c7.81,0.01,11.66,3.19,12.88,10.78
			c1.04,6.44,0.26,12.93,0.28,19.4C399.19,525.1,399.16,539.55,399.17,554z"/>
		<path class="st1" d="M1637.77,640.26c-0.74,6.24-0.06,12.19-1.01,18.04c-1.09,6.73-3.94,9.82-10.7,9.99
			c-12.14,0.29-24.29,0.45-36.44,0.35c-9.11-0.07-12.81-4.19-12.81-13.91c0-55.69,0.07-111.39,0.08-167.08
			c0.01-46.86-0.03-93.72-0.03-140.59c0-2.66-0.01-5.32,0.2-7.97c0.66-8.35,5-12.24,13.46-12.23c11.66,0.01,23.34,0.5,34.96-0.17
			c7.89-0.46,13.11,5.83,13.03,13.33c-0.15,13.62-0.07,27.24-0.06,40.87c0.01,23.76,0.02,47.52,0.04,71.28c0,0.78,0,1.55,0,2.41
			c2.43,0.17,3.09-1.62,4.08-2.75c16.78-19.06,38.18-27.73,63.25-29.23c54.38-3.27,100.34,32.18,114.46,86.32
			c9.85,37.76,7.21,74.53-11.99,109c-16.25,29.17-40.67,48.57-74.02,54.48c-36.92,6.54-69.67-1.39-94.89-31.22
			C1639.13,640.87,1638.65,640.75,1637.77,640.26z M1637.11,547.25c0.09,3.59-0.33,8.04,0.35,12.67
			c2.72,18.54,10.61,33.93,25.16,46.02c24.17,20.08,63.1,16.82,83.39-7.04c22.17-26.08,22.17-66.53,5.82-92.98
			c-21.71-35.13-74-39.1-99.78-4.54C1642.01,514.85,1637.77,529.9,1637.11,547.25z"/>
		<path class="st1" d="M1369.9,568.18c3.18,14.68,8.41,27.56,19.24,37.48c14.58,13.34,32.21,17.44,51.5,17.2
			c20.97-0.26,38.14-8.78,53.32-22.46c6.29-5.67,8.61-5.44,14.73,0.42c6.48,6.21,12.97,12.41,19.5,18.57
			c6.67,6.3,7.15,10.43,0.91,17.38c-7.81,8.69-17.18,15.54-27.27,21.44c-24,14.03-50.24,17.71-77.37,15.89
			c-50.27-3.38-86.95-27.11-106.5-74.22c-8.71-20.98-10.98-43.29-8.63-66.01c2.71-26.19,11.25-50.01,28.38-70.3
			c19.63-23.24,44.84-36.24,75.02-39.94c22.47-2.75,44.36-0.87,65.24,8.21c15.51,6.74,28.67,16.78,39.65,29.73
			c15.76,18.61,24.28,40.06,27.26,64.17c1.2,9.72,1.88,19.35,1.53,29.08c-0.37,10.17-3.72,13.4-13.73,13.4
			c-50.26,0.01-100.52-0.02-150.79-0.04C1378.07,568.18,1374.25,568.18,1369.9,568.18z M1427.84,527.27c0.83,0,1.67,0,2.5,0
			c16.82,0,33.64-0.14,50.46,0.09c4.07,0.06,4.69-1.04,3.79-4.74c-1.41-5.81-3.1-11.51-5.21-17.09
			c-4.46-11.82-12.69-20.53-23.3-26.93c-9.9-5.97-20.99-6.78-32.26-5.93c-30.33,2.27-47.51,23.63-53.03,49.98
			c-0.77,3.68,0.1,4.78,4.09,4.73C1392.53,527.15,1410.19,527.29,1427.84,527.27z"/>
		<path class="st1" d="M433.58,511.33c0-23.27-0.04-46.54,0.02-69.81c0.02-10.25,3.2-13.47,13.41-13.56
			c11.82-0.11,23.64-0.12,35.46-0.02c8.92,0.08,11.41,3.06,11.86,12c2.17,42.8,0.27,85.63,0.97,128.44
			c0.2,12.39,3.31,23.86,11.16,33.53c11.75,14.46,27.74,18.37,45.31,15.76c24.23-3.59,38.69-20.46,39.32-45.1
			c1.04-40.49,0.09-80.99,0.4-121.49c0.03-4.48,0-8.97,0.28-13.43c0.34-5.39,3.57-9.11,8.98-9.42c14.46-0.82,28.95-0.67,43.41,0.06
			c6.03,0.3,9.05,4.88,9.05,12.09c0.01,44.55,0.13,89.1-0.07,133.65c-0.06,13.67-2.64,27.07-7.74,39.8
			c-9.8,24.47-26.76,42.24-51.56,51.54c-34.48,12.92-69.29,13.24-103.36-1.25c-32.37-13.76-49.42-39.72-55.26-73.66
			c-2.89-16.82-1.38-33.82-1.64-50.74c-0.15-9.47-0.03-18.94-0.03-28.42C433.55,511.33,433.56,511.33,433.58,511.33z"/>
		<path class="st1" d="M689.96,497.98c0-52.18,0-104.37,0-156.55c0-10.15,4.41-14.6,14.41-14.61c10.98-0.01,21.97-0.05,32.95-0.05
			c10.03,0,14.65,4.47,14.67,14.45c0.05,23.6,0.02,47.2,0.02,70.79c0,80.26,0,160.51-0.01,240.77c0,1.66,0.06,3.33-0.04,4.98
			c-0.42,6.53-4.09,10.57-10.68,10.73c-13.3,0.31-26.61,0.41-39.91,0.17c-7.43-0.13-11.35-4.66-11.36-12.15
			c-0.02-52.85-0.01-105.7-0.01-158.54C690,497.98,689.98,497.98,689.96,497.98z"/>
	</g>
</g>
</svg>
